<svg xmlns="http://www.w3.org/2000/svg" width="123.812" height="125.107" viewBox="0 0 123.812 125.107">
  <g id="Group_408" data-name="Group 408" transform="translate(-83 -4216)">
    <path id="Path_415" data-name="Path 415" d="M0,0V107.224L61.9,71.481l61.908,35.744V0Z" transform="translate(83 4216)" fill="#fff"/>
    <g id="Group_400" data-name="Group 400">
      <path id="Path_416" data-name="Path 416" d="M26.5,34.2a3,3,0,0,1-1.254-1.18,3.428,3.428,0,0,1-.442-1.749V28.083a3.39,3.39,0,0,1,.442-1.749,2.963,2.963,0,0,1,1.254-1.17,4.091,4.091,0,0,1,1.889-.414,4.188,4.188,0,0,1,1.867.392,2.959,2.959,0,0,1,1.254,1.117,3.112,3.112,0,0,1,.448,1.674c0,.084-.056.134-.165.152l-1.612.1H30.15c-.093,0-.137-.05-.137-.152a1.567,1.567,0,0,0-.448-1.17,1.611,1.611,0,0,0-1.176-.442,1.636,1.636,0,0,0-1.192.442,1.571,1.571,0,0,0-.448,1.17v3.321a1.547,1.547,0,0,0,.448,1.158,1.621,1.621,0,0,0,1.192.442,1.58,1.58,0,0,0,1.176-.442,1.547,1.547,0,0,0,.448-1.158c0-.1.056-.153.165-.153l1.612.068a.176.176,0,0,1,.118.04.125.125,0,0,1,.047.1,3.141,3.141,0,0,1-.448,1.681,2.966,2.966,0,0,1-1.254,1.13,4.184,4.184,0,0,1-1.867.4,4.089,4.089,0,0,1-1.889-.42" transform="translate(65.918 4198.953)" fill="#545f73"/>
      <path id="Path_417" data-name="Path 417" d="M59.232,32.5A1.766,1.766,0,0,0,59.7,31.22V28.188a1.8,1.8,0,0,0-.461-1.288,1.613,1.613,0,0,0-1.232-.489,1.6,1.6,0,0,0-1.22.489,1.8,1.8,0,0,0-.461,1.288V31.22a1.78,1.78,0,0,0,.461,1.282,1.617,1.617,0,0,0,1.22.482,1.636,1.636,0,0,0,1.226-.482M56.11,34.21a3.18,3.18,0,0,1-1.276-1.232,3.616,3.616,0,0,1-.454-1.827V28.2a3.551,3.551,0,0,1,.454-1.805,3.131,3.131,0,0,1,1.276-1.22,4.367,4.367,0,0,1,3.8,0,3.17,3.17,0,0,1,1.276,1.22,3.551,3.551,0,0,1,.454,1.805v2.95a3.656,3.656,0,0,1-.454,1.833,3.1,3.1,0,0,1-1.276,1.232,4.022,4.022,0,0,1-1.908.436,3.9,3.9,0,0,1-1.9-.442" transform="translate(45.544 4198.959)" fill="#545f73"/>
      <path id="Path_418" data-name="Path 418" d="M90.749,25.147a.162.162,0,0,1,.118-.047H92.48a.167.167,0,0,1,.118.047.162.162,0,0,1,.047.118v9.318a.167.167,0,0,1-.047.118.162.162,0,0,1-.118.047H90.924a.2.2,0,0,1-.193-.112l-3.57-5.9c-.019-.028-.037-.037-.056-.034s-.028.025-.028.062l.028,5.817a.158.158,0,0,1-.05.118.162.162,0,0,1-.118.047H85.325a.167.167,0,0,1-.118-.047.162.162,0,0,1-.047-.118V25.265a.167.167,0,0,1,.047-.118.162.162,0,0,1,.118-.047h1.556a.2.2,0,0,1,.193.109l3.554,5.87c.019.028.037.04.056.034s.028-.025.028-.062L90.7,25.262a.158.158,0,0,1,.05-.118" transform="translate(24.343 4198.711)" fill="#545f73"/>
      <path id="Path_419" data-name="Path 419" d="M117.874,34.264a2.849,2.849,0,0,1-1.276-1.005,2.625,2.625,0,0,1-.448-1.522v-.3a.167.167,0,0,1,.047-.118.162.162,0,0,1,.118-.047h1.572a.167.167,0,0,1,.118.047.17.17,0,0,1,.05.118v.205a1.129,1.129,0,0,0,.51.931,2.265,2.265,0,0,0,1.379.38,1.62,1.62,0,0,0,1.089-.311.967.967,0,0,0,.358-.766.78.78,0,0,0-.221-.56,1.9,1.9,0,0,0-.6-.4q-.378-.173-1.2-.476a11.906,11.906,0,0,1-1.565-.647,3.1,3.1,0,0,1-1.074-.9,2.266,2.266,0,0,1-.433-1.413,2.481,2.481,0,0,1,.426-1.447,2.694,2.694,0,0,1,1.186-.949,4.33,4.33,0,0,1,1.749-.33,4.466,4.466,0,0,1,1.867.373,3.05,3.05,0,0,1,1.282,1.039,2.654,2.654,0,0,1,.461,1.55v.205a.167.167,0,0,1-.047.118.15.15,0,0,1-.118.047h-1.584a.167.167,0,0,1-.118-.047.165.165,0,0,1-.05-.118v-.109a1.253,1.253,0,0,0-.476-.987,1.939,1.939,0,0,0-1.3-.408,1.642,1.642,0,0,0-1.011.277.9.9,0,0,0-.364.759.835.835,0,0,0,.212.579,1.905,1.905,0,0,0,.635.42c.28.124.713.293,1.3.5a16.469,16.469,0,0,1,1.537.635,3.064,3.064,0,0,1,1.005.819,2.153,2.153,0,0,1,.448,1.413,2.467,2.467,0,0,1-.952,2.048,4.049,4.049,0,0,1-2.577.75,4.92,4.92,0,0,1-1.93-.352" transform="translate(2.998 4198.953)" fill="#545f73"/>
      <path id="Path_420" data-name="Path 420" d="M146.32,34.7a.165.165,0,0,1-.05-.118V25.265a.158.158,0,0,1,.05-.118.155.155,0,0,1,.118-.047h1.612a.167.167,0,0,1,.118.047.162.162,0,0,1,.047.118V34.58a.167.167,0,0,1-.047.118.165.165,0,0,1-.118.05h-1.612a.158.158,0,0,1-.118-.05" transform="translate(-17.748 4198.711)" fill="#545f73"/>
      <path id="Path_421" data-name="Path 421" d="M162.6,33.08h1.668a1.334,1.334,0,0,0,1.027-.426,1.681,1.681,0,0,0,.408-1.145V28.34a1.629,1.629,0,0,0-.392-1.145,1.367,1.367,0,0,0-1.055-.426H162.6a.06.06,0,0,0-.068.068v6.175a.06.06,0,0,0,.068.068M160.637,34.7a.162.162,0,0,1-.047-.118V25.265a.167.167,0,0,1,.047-.118.162.162,0,0,1,.118-.047H164.2a4.238,4.238,0,0,1,1.811.364,2.793,2.793,0,0,1,1.2,1.027,2.751,2.751,0,0,1,.426,1.531v3.8a2.759,2.759,0,0,1-.426,1.528,2.812,2.812,0,0,1-1.2,1.027,4.239,4.239,0,0,1-1.811.364h-3.445a.158.158,0,0,1-.118-.05" transform="translate(-27.611 4198.711)" fill="#545f73"/>
      <path id="Path_422" data-name="Path 422" d="M197.234,26.718a.165.165,0,0,1-.118.05H192.6a.06.06,0,0,0-.068.068v2.135a.06.06,0,0,0,.068.068h2.963a.167.167,0,0,1,.118.047.162.162,0,0,1,.047.118v1.338a.167.167,0,0,1-.047.118.162.162,0,0,1-.118.047H192.6a.06.06,0,0,0-.068.068v2.231a.06.06,0,0,0,.068.068h4.519a.158.158,0,0,1,.118.05.155.155,0,0,1,.047.118V34.58a.167.167,0,0,1-.047.118.162.162,0,0,1-.118.047h-6.368a.167.167,0,0,1-.118-.047.164.164,0,0,1-.05-.118V25.265a.158.158,0,0,1,.05-.118.162.162,0,0,1,.118-.047h6.368a.167.167,0,0,1,.118.047.162.162,0,0,1,.047.118V26.6a.167.167,0,0,1-.047.118" transform="translate(-48.268 4198.711)" fill="#545f73"/>
      <path id="Path_423" data-name="Path 423" d="M221.055,26.837v2.356a.06.06,0,0,0,.068.068h1.805a1.314,1.314,0,0,0,.943-.345,1.18,1.18,0,0,0,.364-.9,1.2,1.2,0,0,0-.364-.9,1.305,1.305,0,0,0-.943-.352h-1.805a.06.06,0,0,0-.068.068m3.156,7.787L222.487,30.8a.09.09,0,0,0-.084-.056H221.12a.06.06,0,0,0-.068.068v3.763a.167.167,0,0,1-.047.118.162.162,0,0,1-.118.047h-1.612a.167.167,0,0,1-.118-.047.162.162,0,0,1-.047-.118V25.265a.167.167,0,0,1,.047-.118.162.162,0,0,1,.118-.047h3.94a3.219,3.219,0,0,1,1.55.358,2.512,2.512,0,0,1,1.033,1.021,3.129,3.129,0,0,1,.364,1.531,2.711,2.711,0,0,1-.47,1.606,2.5,2.5,0,0,1-1.31.943.065.065,0,0,0-.04.1l1.874,3.9a.215.215,0,0,1,.028.084c0,.075-.05.109-.152.109h-1.7a.193.193,0,0,1-.193-.124" transform="translate(-67.919 4198.711)" fill="#545f73"/>
      <path id="Path_424" data-name="Path 424" d="M251.167,31.7h2.424q.084,0,.056-.084l-1.239-4.093c-.009-.037-.025-.053-.04-.047a.069.069,0,0,0-.04.047l-1.214,4.093q-.014.084.056.084m3.389,2.907-.414-1.351c-.019-.037-.04-.056-.068-.056h-3.389c-.028,0-.05.019-.068.056l-.4,1.351a.172.172,0,0,1-.181.137h-1.749a.157.157,0,0,1-.124-.047.151.151,0,0,1-.012-.146l2.975-9.315a.174.174,0,0,1,.18-.137h2.163a.171.171,0,0,1,.177.137l2.978,9.315a.15.15,0,0,1,.012.068c0,.084-.05.124-.152.124h-1.749a.174.174,0,0,1-.181-.137" transform="translate(-87.916 4198.711)" fill="#545f73"/>
      <path id="Path_425" data-name="Path 425" d="M283.943,25.147a.162.162,0,0,1,.047.118v1.351a.167.167,0,0,1-.047.118.162.162,0,0,1-.118.047h-2.468a.061.061,0,0,0-.069.068V34.58a.167.167,0,0,1-.047.118.162.162,0,0,1-.118.047h-1.612a.167.167,0,0,1-.118-.047.165.165,0,0,1-.05-.118V26.849a.06.06,0,0,0-.068-.068h-2.4a.167.167,0,0,1-.118-.047.15.15,0,0,1-.047-.118V25.265a.167.167,0,0,1,.047-.118.15.15,0,0,1,.118-.047h6.946a.167.167,0,0,1,.118.047" transform="translate(-107.592 4198.711)" fill="#545f73"/>
      <path id="Path_426" data-name="Path 426" d="M313.384,26.718a.164.164,0,0,1-.118.05h-4.519a.06.06,0,0,0-.068.068v2.135a.06.06,0,0,0,.068.068h2.963a.167.167,0,0,1,.118.047.162.162,0,0,1,.047.118v1.338a.167.167,0,0,1-.047.118.162.162,0,0,1-.118.047h-2.963a.06.06,0,0,0-.068.068v2.231a.06.06,0,0,0,.068.068h4.519a.158.158,0,0,1,.118.05.155.155,0,0,1,.047.118V34.58a.167.167,0,0,1-.047.118.162.162,0,0,1-.118.047H306.9a.167.167,0,0,1-.118-.047.164.164,0,0,1-.05-.118V25.265a.158.158,0,0,1,.05-.118.162.162,0,0,1,.118-.047h6.367a.167.167,0,0,1,.118.047.162.162,0,0,1,.047.118V26.6a.167.167,0,0,1-.047.118" transform="translate(-128.27 4198.711)" fill="#545f73"/>
      <path id="Path_427" data-name="Path 427" d="M26.5,84.016a3,3,0,0,1-1.254-1.18,3.428,3.428,0,0,1-.442-1.749V77.9a3.39,3.39,0,0,1,.442-1.749,2.963,2.963,0,0,1,1.254-1.17,4.091,4.091,0,0,1,1.889-.414,4.188,4.188,0,0,1,1.867.392,2.959,2.959,0,0,1,1.254,1.117,3.112,3.112,0,0,1,.448,1.674c0,.084-.056.134-.165.153l-1.612.1H30.15c-.093,0-.137-.05-.137-.152a1.567,1.567,0,0,0-.448-1.17,1.611,1.611,0,0,0-1.176-.442,1.636,1.636,0,0,0-1.192.442,1.571,1.571,0,0,0-.448,1.17v3.321a1.547,1.547,0,0,0,.448,1.158,1.621,1.621,0,0,0,1.192.442,1.58,1.58,0,0,0,1.176-.442,1.547,1.547,0,0,0,.448-1.158c0-.1.056-.152.165-.152l1.612.068a.176.176,0,0,1,.118.04.125.125,0,0,1,.047.1,3.141,3.141,0,0,1-.448,1.681,2.966,2.966,0,0,1-1.254,1.13,4.184,4.184,0,0,1-1.867.4,4.089,4.089,0,0,1-1.889-.42" transform="translate(65.918 4164.638)" fill="#545f73"/>
      <path id="Path_428" data-name="Path 428" d="M59.232,82.312A1.766,1.766,0,0,0,59.7,81.03V78a1.8,1.8,0,0,0-.461-1.288,1.613,1.613,0,0,0-1.232-.489,1.6,1.6,0,0,0-1.22.489A1.8,1.8,0,0,0,56.325,78V81.03a1.775,1.775,0,0,0,.461,1.282,1.617,1.617,0,0,0,1.22.482,1.636,1.636,0,0,0,1.226-.482M56.11,84.02a3.18,3.18,0,0,1-1.276-1.232,3.616,3.616,0,0,1-.454-1.827v-2.95a3.551,3.551,0,0,1,.454-1.805,3.131,3.131,0,0,1,1.276-1.22,4.367,4.367,0,0,1,3.8,0,3.17,3.17,0,0,1,1.276,1.22,3.551,3.551,0,0,1,.454,1.805v2.95a3.656,3.656,0,0,1-.454,1.833,3.1,3.1,0,0,1-1.276,1.232,4.022,4.022,0,0,1-1.908.436,3.9,3.9,0,0,1-1.9-.442" transform="translate(45.544 4164.651)" fill="#545f73"/>
      <path id="Path_429" data-name="Path 429" d="M90.749,74.967a.162.162,0,0,1,.118-.047H92.48a.167.167,0,0,1,.118.047.162.162,0,0,1,.047.118V84.4a.167.167,0,0,1-.047.118.162.162,0,0,1-.118.047H90.924a.2.2,0,0,1-.193-.109l-3.57-5.9c-.019-.028-.037-.037-.056-.034s-.028.025-.028.062l.028,5.817a.158.158,0,0,1-.05.118.162.162,0,0,1-.118.047H85.325a.167.167,0,0,1-.118-.047.162.162,0,0,1-.047-.118V75.088a.167.167,0,0,1,.047-.118.162.162,0,0,1,.118-.047h1.556a.2.2,0,0,1,.193.109l3.554,5.87c.019.028.037.04.056.034s.028-.025.028-.062L90.7,75.085a.158.158,0,0,1,.05-.118" transform="translate(24.343 4164.396)" fill="#545f73"/>
      <path id="Path_430" data-name="Path 430" d="M117.874,84.091a2.849,2.849,0,0,1-1.276-1.005,2.625,2.625,0,0,1-.448-1.522v-.3a.167.167,0,0,1,.047-.118.162.162,0,0,1,.118-.047h1.572a.167.167,0,0,1,.118.047.165.165,0,0,1,.05.118v.205a1.129,1.129,0,0,0,.51.931,2.265,2.265,0,0,0,1.379.38,1.62,1.62,0,0,0,1.089-.311.967.967,0,0,0,.358-.766.768.768,0,0,0-.221-.557,1.9,1.9,0,0,0-.6-.4q-.378-.173-1.2-.476a11.908,11.908,0,0,1-1.565-.647,3.1,3.1,0,0,1-1.074-.9,2.272,2.272,0,0,1-.433-1.413,2.481,2.481,0,0,1,.426-1.447,2.694,2.694,0,0,1,1.186-.949,4.33,4.33,0,0,1,1.749-.33,4.466,4.466,0,0,1,1.867.373,3.05,3.05,0,0,1,1.282,1.039,2.654,2.654,0,0,1,.461,1.55v.205a.167.167,0,0,1-.047.118.162.162,0,0,1-.118.047h-1.584a.167.167,0,0,1-.118-.047.165.165,0,0,1-.05-.118v-.109a1.253,1.253,0,0,0-.476-.987,1.939,1.939,0,0,0-1.3-.408,1.642,1.642,0,0,0-1.011.277.9.9,0,0,0-.364.759.835.835,0,0,0,.212.579,1.905,1.905,0,0,0,.635.42c.28.124.713.293,1.3.5a16.47,16.47,0,0,1,1.537.635,3.036,3.036,0,0,1,1.005.822,2.153,2.153,0,0,1,.448,1.413,2.471,2.471,0,0,1-.952,2.048,4.049,4.049,0,0,1-2.577.75,4.919,4.919,0,0,1-1.93-.352" transform="translate(2.998 4164.631)" fill="#545f73"/>
      <path id="Path_431" data-name="Path 431" d="M151.673,74.967a.162.162,0,0,1,.047.118v1.351a.167.167,0,0,1-.047.118.162.162,0,0,1-.118.047h-2.468a.06.06,0,0,0-.068.068V84.4a.158.158,0,0,1-.05.118.162.162,0,0,1-.118.047h-1.612a.167.167,0,0,1-.118-.047.162.162,0,0,1-.047-.118V76.669A.06.06,0,0,0,147,76.6h-2.4a.167.167,0,0,1-.118-.047.162.162,0,0,1-.047-.118V75.085a.167.167,0,0,1,.047-.118.162.162,0,0,1,.118-.047h6.946a.167.167,0,0,1,.118.047" transform="translate(-16.487 4164.396)" fill="#545f73"/>
      <path id="Path_432" data-name="Path 432" d="M176.422,76.65v2.356a.06.06,0,0,0,.068.068H178.3a1.314,1.314,0,0,0,.943-.345,1.18,1.18,0,0,0,.364-.9,1.2,1.2,0,0,0-.364-.9,1.3,1.3,0,0,0-.943-.352H176.49a.06.06,0,0,0-.068.068m3.156,7.787-1.724-3.819a.089.089,0,0,0-.081-.056H176.49a.06.06,0,0,0-.068.068V84.39a.167.167,0,0,1-.047.118.162.162,0,0,1-.118.047h-1.612a.167.167,0,0,1-.118-.047.162.162,0,0,1-.047-.118V75.075a.167.167,0,0,1,.047-.118.162.162,0,0,1,.118-.047h3.943a3.219,3.219,0,0,1,1.55.358,2.512,2.512,0,0,1,1.033,1.021,3.129,3.129,0,0,1,.364,1.531,2.711,2.711,0,0,1-.47,1.606,2.507,2.507,0,0,1-1.31.943.065.065,0,0,0-.04.1l1.874,3.9a.215.215,0,0,1,.028.084c0,.075-.05.109-.152.109h-1.7a.193.193,0,0,1-.193-.124" transform="translate(-37.179 4164.403)" fill="#545f73"/>
      <path id="Path_433" data-name="Path 433" d="M205.8,84.263a3.044,3.044,0,0,1-1.254-1.164,3.311,3.311,0,0,1-.448-1.73V75.085a.167.167,0,0,1,.047-.118.162.162,0,0,1,.118-.047h1.612a.167.167,0,0,1,.118.047.151.151,0,0,1,.047.118v6.3a1.627,1.627,0,1,0,3.252,0v-6.3a.167.167,0,0,1,.047-.118.151.151,0,0,1,.118-.047h1.612a.167.167,0,0,1,.118.047.162.162,0,0,1,.047.118v6.284a3.311,3.311,0,0,1-.448,1.73,3.023,3.023,0,0,1-1.254,1.164,4.419,4.419,0,0,1-3.735,0" transform="translate(-57.58 4164.396)" fill="#545f73"/>
      <path id="Path_434" data-name="Path 434" d="M235.646,84.016a3,3,0,0,1-1.254-1.18,3.428,3.428,0,0,1-.442-1.749V77.9a3.39,3.39,0,0,1,.442-1.749,2.981,2.981,0,0,1,1.254-1.17,4.091,4.091,0,0,1,1.889-.414,4.188,4.188,0,0,1,1.867.392,2.959,2.959,0,0,1,1.254,1.117,3.111,3.111,0,0,1,.448,1.674c0,.084-.056.134-.165.153l-1.612.1H239.3c-.09,0-.137-.05-.137-.152a1.567,1.567,0,0,0-.448-1.17,1.614,1.614,0,0,0-1.18-.442,1.631,1.631,0,0,0-1.192.442,1.571,1.571,0,0,0-.448,1.17v3.321a1.548,1.548,0,0,0,.448,1.158,1.621,1.621,0,0,0,1.192.442,1.592,1.592,0,0,0,1.18-.442,1.547,1.547,0,0,0,.448-1.158c0-.1.056-.152.165-.152l1.612.068a.176.176,0,0,1,.118.04.129.129,0,0,1,.05.1,3.141,3.141,0,0,1-.448,1.681,2.966,2.966,0,0,1-1.254,1.13,4.142,4.142,0,0,1-1.867.4,4.1,4.1,0,0,1-1.889-.42" transform="translate(-78.14 4164.638)" fill="#545f73"/>
      <path id="Path_435" data-name="Path 435" d="M269.56,74.967a.162.162,0,0,1,.047.118v1.351a.167.167,0,0,1-.047.118.162.162,0,0,1-.118.047h-2.468a.06.06,0,0,0-.068.068V84.4a.167.167,0,0,1-.047.118.162.162,0,0,1-.118.047h-1.612a.167.167,0,0,1-.118-.047.164.164,0,0,1-.05-.118V76.669a.06.06,0,0,0-.069-.068h-2.4a.167.167,0,0,1-.118-.047.15.15,0,0,1-.047-.118V75.085a.167.167,0,0,1,.047-.118.15.15,0,0,1,.118-.047h6.946a.167.167,0,0,1,.118.047" transform="translate(-97.688 4164.396)" fill="#545f73"/>
      <path id="Path_436" data-name="Path 436" d="M295.342,82.312a1.765,1.765,0,0,0,.467-1.282V78a1.8,1.8,0,0,0-.461-1.288,1.613,1.613,0,0,0-1.232-.489,1.6,1.6,0,0,0-1.22.489A1.8,1.8,0,0,0,292.435,78V81.03a1.775,1.775,0,0,0,.461,1.282,1.617,1.617,0,0,0,1.22.482,1.636,1.636,0,0,0,1.226-.482M292.22,84.02a3.18,3.18,0,0,1-1.276-1.232,3.585,3.585,0,0,1-.454-1.827v-2.95a3.55,3.55,0,0,1,.454-1.805,3.131,3.131,0,0,1,1.276-1.22,4.367,4.367,0,0,1,3.8,0,3.151,3.151,0,0,1,1.276,1.22,3.551,3.551,0,0,1,.454,1.805v2.95a3.657,3.657,0,0,1-.454,1.833,3.1,3.1,0,0,1-1.276,1.232,4.022,4.022,0,0,1-1.908.436,3.9,3.9,0,0,1-1.9-.442" transform="translate(-117.084 4164.651)" fill="#545f73"/>
      <path id="Path_437" data-name="Path 437" d="M323.215,76.65v2.356a.061.061,0,0,0,.068.068h1.805a1.314,1.314,0,0,0,.943-.345,1.18,1.18,0,0,0,.364-.9,1.2,1.2,0,0,0-.364-.9,1.3,1.3,0,0,0-.943-.352h-1.805a.06.06,0,0,0-.068.068m3.156,7.787-1.724-3.819a.09.09,0,0,0-.084-.056h-1.282a.06.06,0,0,0-.068.068V84.39a.167.167,0,0,1-.047.118.162.162,0,0,1-.118.047h-1.612a.167.167,0,0,1-.118-.047.162.162,0,0,1-.047-.118V75.075a.167.167,0,0,1,.047-.118.162.162,0,0,1,.118-.047h3.943a3.219,3.219,0,0,1,1.55.358,2.512,2.512,0,0,1,1.033,1.021,3.129,3.129,0,0,1,.364,1.531,2.711,2.711,0,0,1-.47,1.606,2.507,2.507,0,0,1-1.31.943.065.065,0,0,0-.04.1l1.874,3.9a.216.216,0,0,1,.028.084c0,.075-.05.109-.152.109h-1.7a.193.193,0,0,1-.193-.124" transform="translate(-138.285 4164.403)" fill="#545f73"/>
      <path id="Path_438" data-name="Path 438" d="M351.734,84.091a2.849,2.849,0,0,1-1.276-1.005,2.625,2.625,0,0,1-.448-1.522v-.3a.167.167,0,0,1,.047-.118.162.162,0,0,1,.118-.047h1.572a.167.167,0,0,1,.118.047.162.162,0,0,1,.047.118v.205a1.129,1.129,0,0,0,.51.931,2.264,2.264,0,0,0,1.379.38,1.625,1.625,0,0,0,1.089-.311.967.967,0,0,0,.358-.766.768.768,0,0,0-.221-.557,1.9,1.9,0,0,0-.6-.4c-.252-.115-.654-.274-1.208-.476a11.9,11.9,0,0,1-1.565-.647,3.134,3.134,0,0,1-1.074-.9,2.272,2.272,0,0,1-.433-1.413,2.481,2.481,0,0,1,.426-1.447,2.7,2.7,0,0,1,1.186-.949,4.33,4.33,0,0,1,1.749-.33,4.466,4.466,0,0,1,1.867.373,3.049,3.049,0,0,1,1.282,1.039,2.654,2.654,0,0,1,.461,1.55v.205a.167.167,0,0,1-.047.118.162.162,0,0,1-.118.047h-1.584a.167.167,0,0,1-.118-.047.162.162,0,0,1-.047-.118v-.109a1.253,1.253,0,0,0-.476-.987,1.939,1.939,0,0,0-1.3-.408,1.658,1.658,0,0,0-1.015.277.9.9,0,0,0-.364.759.823.823,0,0,0,.215.579,1.905,1.905,0,0,0,.635.42c.28.124.716.293,1.3.5a16.481,16.481,0,0,1,1.537.635,3.036,3.036,0,0,1,1.005.822,2.153,2.153,0,0,1,.448,1.413,2.478,2.478,0,0,1-.949,2.048,4.049,4.049,0,0,1-2.577.75,4.92,4.92,0,0,1-1.93-.352" transform="translate(-158.08 4164.631)" fill="#545f73"/>
      <path id="Path_439" data-name="Path 439" d="M26.034,133.911a2.849,2.849,0,0,1-1.276-1.005,2.625,2.625,0,0,1-.448-1.522v-.3a.167.167,0,0,1,.047-.118.162.162,0,0,1,.118-.047h1.572a.16.16,0,0,1,.165.165v.205a1.129,1.129,0,0,0,.51.931,2.265,2.265,0,0,0,1.379.38,1.625,1.625,0,0,0,1.089-.311.967.967,0,0,0,.358-.766.768.768,0,0,0-.221-.557,1.939,1.939,0,0,0-.6-.4c-.252-.115-.654-.274-1.208-.476a11.907,11.907,0,0,1-1.565-.647,3.1,3.1,0,0,1-1.074-.9,2.268,2.268,0,0,1-.436-1.413,2.48,2.48,0,0,1,.426-1.447,2.694,2.694,0,0,1,1.186-.949,4.33,4.33,0,0,1,1.749-.33,4.466,4.466,0,0,1,1.867.373,3.05,3.05,0,0,1,1.282,1.039,2.654,2.654,0,0,1,.461,1.55v.205a.167.167,0,0,1-.047.118.162.162,0,0,1-.118.047H29.666a.167.167,0,0,1-.118-.047.162.162,0,0,1-.047-.118v-.109a1.253,1.253,0,0,0-.476-.987,1.939,1.939,0,0,0-1.3-.408,1.658,1.658,0,0,0-1.015.277.9.9,0,0,0-.364.759.823.823,0,0,0,.215.579,1.905,1.905,0,0,0,.635.42c.28.124.716.293,1.3.5a16.478,16.478,0,0,1,1.537.635,3.1,3.1,0,0,1,1.005.819,2.153,2.153,0,0,1,.448,1.413,2.467,2.467,0,0,1-.952,2.048,4.049,4.049,0,0,1-2.577.75,4.92,4.92,0,0,1-1.93-.352" transform="translate(66.256 4130.315)" fill="#545f73"/>
      <path id="Path_440" data-name="Path 440" d="M55.506,133.826a3,3,0,0,1-1.254-1.18,3.429,3.429,0,0,1-.442-1.749v-3.184a3.39,3.39,0,0,1,.442-1.749,2.963,2.963,0,0,1,1.254-1.17,4.091,4.091,0,0,1,1.889-.414,4.188,4.188,0,0,1,1.867.392,2.959,2.959,0,0,1,1.254,1.117,3.112,3.112,0,0,1,.448,1.674c0,.084-.056.134-.165.152l-1.612.1H59.16c-.09,0-.137-.05-.137-.153a1.566,1.566,0,0,0-.448-1.17,1.614,1.614,0,0,0-1.18-.442,1.631,1.631,0,0,0-1.192.442,1.571,1.571,0,0,0-.448,1.17v3.321a1.547,1.547,0,0,0,.448,1.158,1.621,1.621,0,0,0,1.192.442,1.592,1.592,0,0,0,1.18-.442,1.547,1.547,0,0,0,.448-1.158c0-.1.056-.152.165-.152l1.612.068a.176.176,0,0,1,.118.04.125.125,0,0,1,.047.1,3.141,3.141,0,0,1-.448,1.681,2.967,2.967,0,0,1-1.254,1.13,4.142,4.142,0,0,1-1.867.4,4.1,4.1,0,0,1-1.889-.42" transform="translate(45.937 4130.33)" fill="#545f73"/>
      <path id="Path_441" data-name="Path 441" d="M89.192,124.787a.162.162,0,0,1,.118-.047h1.612a.167.167,0,0,1,.118.047.162.162,0,0,1,.047.118v9.318a.167.167,0,0,1-.047.118.162.162,0,0,1-.118.047H89.311a.167.167,0,0,1-.118-.047.164.164,0,0,1-.05-.118v-3.8a.06.06,0,0,0-.068-.068H86.03a.06.06,0,0,0-.068.068v3.8a.16.16,0,0,1-.165.165H84.185a.167.167,0,0,1-.118-.047.162.162,0,0,1-.047-.118V124.9a.167.167,0,0,1,.047-.118.162.162,0,0,1,.118-.047H85.8a.167.167,0,0,1,.118.047.162.162,0,0,1,.047.118v3.707a.06.06,0,0,0,.068.068h3.044a.06.06,0,0,0,.068-.068V124.9a.158.158,0,0,1,.05-.118" transform="translate(25.128 4130.082)" fill="#545f73"/>
      <path id="Path_442" data-name="Path 442" d="M121.121,126.358a.165.165,0,0,1-.118.05h-4.519a.06.06,0,0,0-.068.068v2.135a.06.06,0,0,0,.068.068h2.963a.167.167,0,0,1,.118.047.162.162,0,0,1,.047.118v1.338a.167.167,0,0,1-.047.118.162.162,0,0,1-.118.047h-2.963a.06.06,0,0,0-.068.068v2.231a.06.06,0,0,0,.068.068H121a.158.158,0,0,1,.118.05.155.155,0,0,1,.047.118v1.335a.167.167,0,0,1-.047.118.162.162,0,0,1-.118.047h-6.368a.167.167,0,0,1-.118-.047.162.162,0,0,1-.047-.118V124.9a.167.167,0,0,1,.047-.118.162.162,0,0,1,.118-.047H121a.167.167,0,0,1,.118.047.162.162,0,0,1,.047.118v1.338a.167.167,0,0,1-.047.118" transform="translate(4.155 4130.082)" fill="#545f73"/>
      <path id="Path_443" data-name="Path 443" d="M149.392,124.723H151a.158.158,0,0,1,.118.05.162.162,0,0,1,.047.118v9.315a.167.167,0,0,1-.047.118.162.162,0,0,1-.118.047h-1.612a.167.167,0,0,1-.118-.047.162.162,0,0,1-.047-.118v-6.078q0-.056-.028-.056c-.019,0-.037.016-.056.04l-1.46,2.287a.215.215,0,0,1-.193.112h-.812a.215.215,0,0,1-.193-.112l-1.46-2.287c-.019-.028-.037-.04-.056-.034s-.028.025-.028.062V134.2a.167.167,0,0,1-.047.118.162.162,0,0,1-.118.047h-1.612a.167.167,0,0,1-.118-.047A.162.162,0,0,1,143,134.2v-9.315a.167.167,0,0,1,.047-.118.165.165,0,0,1,.118-.05h1.612a.222.222,0,0,1,.193.109l2.067,3.212c.028.056.056.056.081,0l2.082-3.212a.212.212,0,0,1,.193-.109" transform="translate(-15.496 4130.095)" fill="#545f73"/>
      <path id="Path_444" data-name="Path 444" d="M183.961,126.358a.165.165,0,0,1-.118.05h-4.519a.06.06,0,0,0-.068.068v2.135a.06.06,0,0,0,.068.068h2.963a.167.167,0,0,1,.118.047.162.162,0,0,1,.047.118v1.338a.167.167,0,0,1-.047.118.162.162,0,0,1-.118.047h-2.963a.06.06,0,0,0-.068.068v2.231a.06.06,0,0,0,.068.068h4.519a.158.158,0,0,1,.118.05.155.155,0,0,1,.047.118v1.335a.167.167,0,0,1-.047.118.162.162,0,0,1-.118.047h-6.368a.167.167,0,0,1-.118-.047.162.162,0,0,1-.047-.118V124.9a.167.167,0,0,1,.047-.118.162.162,0,0,1,.118-.047h6.368a.167.167,0,0,1,.118.047.162.162,0,0,1,.047.118v1.338a.167.167,0,0,1-.047.118" transform="translate(-39.128 4130.082)" fill="#545f73"/>
    </g>
    <path id="Path_445" data-name="Path 445" d="M0,294.154v8.941l61.9-35.744,61.908,35.744v-8.941L61.9,258.41Z" transform="translate(83 4038.012)" fill="#31c2b9"/>
    <path id="Path_446" data-name="Path 446" d="M0,265.424v8.941l61.9-35.743,61.908,35.743v-8.941L61.9,229.68Z" transform="translate(83 4057.801)" fill="#97e0dc"/>
  </g>
</svg>